<?xml version="1.0" encoding="utf-8"?>
<!-- Generator: Adobe Illustrator 23.0.1, SVG Export Plug-In . SVG Version: 6.00 Build 0)  -->
<svg version="1.1" id="Layer_1" xmlns="http://www.w3.org/2000/svg" xmlns:xlink="http://www.w3.org/1999/xlink" x="0px" y="0px"
	 viewBox="0 0 512 512" style="enable-background:new 0 0 512 512;" xml:space="preserve">
<style type="text/css">
	.st0{fill:#4D657C;}
	.st1{fill:#E5F4C9;}
</style>
<path class="st0" d="M283.7,269.8H93.4c-7.6,0-13.8-6.2-13.8-13.8s6.2-13.8,13.8-13.8h190.3c7.6,0,13.8,6.2,13.8,13.8
	S291.3,269.8,283.7,269.8z"/>
<polygon class="st1" points="108.1,310.5 13.8,256 108.1,201.5 "/>
<g>
	<path class="st0" d="M108.1,324.2c-2.4,0-4.8-0.6-6.9-1.8L6.9,267.9c-4.3-2.5-6.9-7-6.9-11.9c0-4.9,2.6-9.5,6.9-11.9l94.3-54.5
		c4.3-2.5,9.5-2.5,13.8,0s6.9,7,6.9,11.9v108.9c0,4.9-2.6,9.5-6.9,11.9C112.9,323.6,110.5,324.2,108.1,324.2z M41.3,256l53.1,30.6
		v-61.3L41.3,256z"/>
	<path class="st0" d="M318.8,449.2c-39.3,0-77.2-11.7-109.5-33.9c-32.2-22.1-56.6-53.1-70.7-89.5c-1.6-4.2-1.1-9,1.5-12.7
		c2.6-3.7,6.8-6,11.3-6h62.8c7.6,0,13.8,6.2,13.8,13.8s-6.2,13.8-13.8,13.8h-41.4c28.6,53.5,83.9,87.1,146,87.1
		c91.4,0,165.7-74.3,165.7-165.7S410.2,90.3,318.8,90.3c-62.1,0-117.4,33.6-146,87.1h34c16.7-23.8,40.9-41.8,68.6-51.1
		c14-4.7,28.6-7.1,43.3-7.1c75.4,0,136.8,61.3,136.8,136.8s-61.3,136.8-136.8,136.8c-14.7,0-29.3-2.4-43.3-7.1
		c-7.2-2.4-11.1-10.2-8.7-17.4s10.2-11.1,17.4-8.7c11.2,3.7,22.8,5.6,34.5,5.6c60.2,0,109.2-49,109.2-109.2s-49-109.2-109.2-109.2
		c-11.7,0-23.4,1.9-34.5,5.6c-24.2,8.1-44.9,24.5-58.3,46c-2.5,4-6.9,6.5-11.7,6.5h-62.8c-4.5,0-8.8-2.2-11.3-6
		c-2.6-3.7-3.1-8.5-1.5-12.7c14.1-36.5,38.6-67.4,70.7-89.5c32.3-22.2,70.1-33.9,109.5-33.9C425.3,62.8,512,149.5,512,256
		S425.3,449.2,318.8,449.2z"/>
</g>
</svg>
